<mxfile host="app.diagrams.net" modified="2023-11-14T02:33:26.858Z" agent="Mozilla/5.0 (Windows NT 10.0; Win64; x64) AppleWebKit/537.36 (KHTML, like Gecko) Chrome/117.0.0.0 Safari/537.36" etag="L2ZzIBJfmgXC33XrPx8o" version="22.1.0" type="device">
  <diagram name="PÃ¡gina-1" id="0n8ty_jARPlWTvvhVVBT">
    <mxGraphModel dx="2514" dy="1274" grid="1" gridSize="10" guides="1" tooltips="1" connect="1" arrows="1" fold="1" page="1" pageScale="1" pageWidth="827" pageHeight="1169" math="0" shadow="0">
      <root>
        <mxCell id="0" />
        <mxCell id="1" parent="0" />
        <mxCell id="Q2bHg4-huvtV1Vr1IJEo-35" value="" style="rounded=0;whiteSpace=wrap;html=1;rotation=-90;" vertex="1" parent="1">
          <mxGeometry x="-168.1" y="174.5" width="1161.05" height="822.51" as="geometry" />
        </mxCell>
        <mxCell id="VXAG-d0pe58U1ajMO5Hk-1" value="" style="rounded=0;whiteSpace=wrap;html=1;" parent="1" vertex="1">
          <mxGeometry x="40" y="40" width="740" height="80" as="geometry" />
        </mxCell>
        <mxCell id="VXAG-d0pe58U1ajMO5Hk-2" value="" style="whiteSpace=wrap;html=1;aspect=fixed;" parent="1" vertex="1">
          <mxGeometry x="80" y="50" width="60" height="60" as="geometry" />
        </mxCell>
        <mxCell id="VXAG-d0pe58U1ajMO5Hk-3" value="" style="shape=mxgraph.sysml.x;" parent="1" vertex="1">
          <mxGeometry x="80" y="50" width="60" height="60" as="geometry" />
        </mxCell>
        <mxCell id="VXAG-d0pe58U1ajMO5Hk-6" value="&lt;b&gt;Home&lt;/b&gt;" style="rounded=1;html=1;shadow=0;dashed=0;whiteSpace=wrap;fontSize=10;align=center;" parent="1" vertex="1">
          <mxGeometry x="200" y="65.78" width="105.5" height="28.44" as="geometry" />
        </mxCell>
        <mxCell id="VXAG-d0pe58U1ajMO5Hk-7" value="&lt;b&gt;Porfolio&lt;/b&gt;" style="rounded=1;html=1;shadow=0;dashed=0;whiteSpace=wrap;fontSize=10;align=center;" parent="1" vertex="1">
          <mxGeometry x="340" y="65.78" width="105.5" height="28.44" as="geometry" />
        </mxCell>
        <mxCell id="VXAG-d0pe58U1ajMO5Hk-8" value="&lt;b&gt;Curriculum&lt;/b&gt;" style="rounded=1;html=1;shadow=0;dashed=0;whiteSpace=wrap;fontSize=10;align=center;" parent="1" vertex="1">
          <mxGeometry x="480" y="65.78" width="105.5" height="28.44" as="geometry" />
        </mxCell>
        <mxCell id="VXAG-d0pe58U1ajMO5Hk-9" value="&lt;b&gt;Contact me&lt;/b&gt;" style="rounded=1;html=1;shadow=0;dashed=0;whiteSpace=wrap;fontSize=10;align=center;" parent="1" vertex="1">
          <mxGeometry x="620" y="65.78" width="105.5" height="28.44" as="geometry" />
        </mxCell>
        <mxCell id="VXAG-d0pe58U1ajMO5Hk-12" value="&lt;h4 style=&quot;font-family: var(--heading-font); color: var(--headline-color-on-white); font-size: 18px;&quot;&gt;Curriculum&lt;/h4&gt;" style="text;strokeColor=none;fillColor=none;html=1;fontSize=24;fontStyle=1;verticalAlign=middle;align=center;" parent="1" vertex="1">
          <mxGeometry x="364" y="140" width="100" height="40" as="geometry" />
        </mxCell>
        <mxCell id="VXAG-d0pe58U1ajMO5Hk-13" value="&lt;h1&gt;&lt;p style=&quot;font-family: var(--paragraph-font); color: var(--paragraph-color-on-white); padding: 1em; font-size: 18px; font-weight: 400;&quot;&gt;&lt;span style=&quot;color: var(--paragraph-color-on-white); font-family: var(--paragraph-font); background-color: initial;&quot;&gt;I&#39;ve had the privilege to work with a variety of organizations and projects throughout my career. From my early days as an intern to my current position as a seasoned web developer, I&#39;ve continuously sought opportunities to refine my skills and contribute to the development of innovative digital solutions. My professional journey has included collaborating with both small startups and large enterprises, each offering unique challenges and opportunities. These experiences have allowed me to develop a diverse skill set, adapt to different work environments, and contribute to a wide array of projects.&lt;/span&gt;&lt;br&gt;&lt;/p&gt;&lt;p style=&quot;font-family: var(--paragraph-font); color: var(--paragraph-color-on-white); padding: 1em; font-size: 18px; font-weight: 400;&quot;&gt;My journey in web development began with a strong educational foundation. I&#39;m persuing a degree in Computer Science from&amp;nbsp;&lt;b&gt;Brighman Young University&lt;/b&gt;, where I&#39;m gaining a deep understanding of the fundamental principles that underpin the digital world. My educational background not only equipped me with the technical skills required in web development but also instilled a problem-solving mindset and a thirst for knowledge that continues to drive my work.&lt;/p&gt;&lt;p style=&quot;font-family: var(--paragraph-font); color: var(--paragraph-color-on-white); padding: 1em; font-size: 18px; font-weight: 400;&quot;&gt;I hope this Curriculum Vitae provides you with a comprehensive understanding of my educational background, professional journey, skills, and accomplishments in the field of web development. My commitment to delivering high-quality work, my adaptability, and my passion for innovation are all evident in my curriculum. If you have any questions or would like to discuss potential opportunities, please don&#39;t hesitate to reach out. Thank you for taking the time to explore my web development journey.&lt;/p&gt;&lt;div&gt;&lt;br&gt;&lt;/div&gt;&lt;div&gt;&lt;br&gt;&lt;/div&gt;&lt;/h1&gt;" style="text;html=1;strokeColor=none;fillColor=none;spacing=5;spacingTop=-20;whiteSpace=wrap;overflow=hidden;rounded=0;align=left;" parent="1" vertex="1">
          <mxGeometry x="30" y="310" width="540" height="760" as="geometry" />
        </mxCell>
        <mxCell id="Q2bHg4-huvtV1Vr1IJEo-1" value="" style="rounded=0;whiteSpace=wrap;html=1;" vertex="1" parent="1">
          <mxGeometry x="40" y="1079" width="740" height="62" as="geometry" />
        </mxCell>
        <mxCell id="Q2bHg4-huvtV1Vr1IJEo-2" value="&lt;p style=&quot;font-weight: 400; text-align: start; font-size: 14px;&quot;&gt;&lt;font style=&quot;font-size: 14px;&quot;&gt;Personal Site 2023 - Julian Maccaferri&lt;/font&gt;&lt;/p&gt;&lt;div style=&quot;font-size: 14px;&quot;&gt;&lt;br&gt;&lt;/div&gt;" style="text;strokeColor=none;fillColor=none;html=1;fontSize=24;fontStyle=1;verticalAlign=middle;align=center;" vertex="1" parent="1">
          <mxGeometry x="140" y="1101" width="100" height="40" as="geometry" />
        </mxCell>
        <mxCell id="Q2bHg4-huvtV1Vr1IJEo-3" value="&lt;span style=&quot;font-size: 12px;&quot;&gt;Site Plan&lt;/span&gt;" style="text;strokeColor=none;fillColor=none;html=1;fontSize=24;fontStyle=1;verticalAlign=middle;align=center;" vertex="1" parent="1">
          <mxGeometry x="340" y="1089" width="100" height="40" as="geometry" />
        </mxCell>
        <mxCell id="Q2bHg4-huvtV1Vr1IJEo-4" value="&lt;span style=&quot;font-size: 12px;&quot;&gt;Contact Me&lt;/span&gt;" style="text;strokeColor=none;fillColor=none;html=1;fontSize=24;fontStyle=1;verticalAlign=middle;align=center;" vertex="1" parent="1">
          <mxGeometry x="460" y="1088.5" width="100" height="40" as="geometry" />
        </mxCell>
        <mxCell id="Q2bHg4-huvtV1Vr1IJEo-5" value="" style="shape=image;html=1;verticalAlign=top;verticalLabelPosition=bottom;labelBackgroundColor=#ffffff;imageAspect=0;aspect=fixed;image=https://cdn1.iconfinder.com/data/icons/social-media-2285/512/Colored_Facebook3_svg-128.png" vertex="1" parent="1">
          <mxGeometry x="610" y="1094" width="30" height="30" as="geometry" />
        </mxCell>
        <mxCell id="Q2bHg4-huvtV1Vr1IJEo-6" value="" style="shape=image;html=1;verticalAlign=top;verticalLabelPosition=bottom;labelBackgroundColor=#ffffff;imageAspect=0;aspect=fixed;image=https://cdn2.iconfinder.com/data/icons/social-media-2285/512/1_Twitter3_colored_svg-128.png" vertex="1" parent="1">
          <mxGeometry x="670" y="1094.5" width="30" height="30" as="geometry" />
        </mxCell>
        <mxCell id="Q2bHg4-huvtV1Vr1IJEo-7" value="" style="dashed=0;outlineConnect=0;html=1;align=center;labelPosition=center;verticalLabelPosition=bottom;verticalAlign=top;shape=mxgraph.weblogos.instagram;fillColor=#6FC0E4;gradientColor=#1E305B" vertex="1" parent="1">
          <mxGeometry x="730" y="1093.5" width="30" height="30" as="geometry" />
        </mxCell>
        <mxCell id="Q2bHg4-huvtV1Vr1IJEo-27" value="" style="whiteSpace=wrap;html=1;aspect=fixed;" vertex="1" parent="1">
          <mxGeometry x="570" y="340" width="210" height="210" as="geometry" />
        </mxCell>
        <mxCell id="Q2bHg4-huvtV1Vr1IJEo-29" value="" style="shape=mxgraph.sysml.x;" vertex="1" parent="1">
          <mxGeometry x="570" y="340" width="210" height="210" as="geometry" />
        </mxCell>
        <mxCell id="Q2bHg4-huvtV1Vr1IJEo-30" value="" style="whiteSpace=wrap;html=1;aspect=fixed;" vertex="1" parent="1">
          <mxGeometry x="570" y="590" width="210" height="210" as="geometry" />
        </mxCell>
        <mxCell id="Q2bHg4-huvtV1Vr1IJEo-31" value="" style="shape=mxgraph.sysml.x;" vertex="1" parent="1">
          <mxGeometry x="570" y="590" width="210" height="210" as="geometry" />
        </mxCell>
        <mxCell id="Q2bHg4-huvtV1Vr1IJEo-32" value="" style="whiteSpace=wrap;html=1;aspect=fixed;" vertex="1" parent="1">
          <mxGeometry x="567.75" y="840" width="210" height="210" as="geometry" />
        </mxCell>
        <mxCell id="Q2bHg4-huvtV1Vr1IJEo-33" value="" style="shape=mxgraph.sysml.x;" vertex="1" parent="1">
          <mxGeometry x="567.75" y="840" width="210" height="210" as="geometry" />
        </mxCell>
        <mxCell id="Q2bHg4-huvtV1Vr1IJEo-34" value="&lt;h1 style=&quot;border-color: var(--border-color);&quot;&gt;&lt;p style=&quot;border-color: var(--border-color); font-family: var(--paragraph-font); color: var(--paragraph-color-on-white); padding: 1em; font-size: 18px; font-weight: 400;&quot;&gt;Welcome to my Curriculum Vitae page. Here, you&#39;ll find an in-depth overview of my professional journey and experiences in the world of web development. My commitment to this field, my educational background, and the skills I&#39;ve honed throughout my career are all detailed in this document.&lt;/p&gt;&lt;div&gt;&lt;br&gt;&lt;/div&gt;&lt;/h1&gt;" style="text;html=1;strokeColor=none;fillColor=none;align=center;verticalAlign=middle;whiteSpace=wrap;rounded=0;" vertex="1" parent="1">
          <mxGeometry x="70" y="230" width="710" height="70" as="geometry" />
        </mxCell>
      </root>
    </mxGraphModel>
  </diagram>
</mxfile>
